<svg width="312" height="473" viewBox="0 0 312 473" fill="none" xmlns="http://www.w3.org/2000/svg">
<path d="M290 423H14V27H290C299.9 27 308 34.8 308 44.7V404.7C308 414.7 299.9 423 290 423Z" fill="#0A7362" stroke="#0A7362" stroke-width="8" stroke-miterlimit="10" stroke-linecap="round" stroke-linejoin="round"/>
<path d="M251 431H237C234.2 431 232 428.8 232 426V24C232 21.2 234.2 19 237 19H251C253.8 19 256 21.2 256 24V426C256 428.8 253.8 431 251 431Z" fill="#0A7362" stroke="#0A7362" stroke-width="8" stroke-miterlimit="10" stroke-linecap="round" stroke-linejoin="round"/>
<path d="M75 468.7L45 452V423H75V468.7Z" fill="#0A7362" stroke="#0A7362" stroke-width="8" stroke-miterlimit="10" stroke-linecap="round" stroke-linejoin="round"/>
<path d="M280 408H4V12H280C289.9 12 298 19.8 298 29.7V389.7C298 399.7 289.9 408 280 408Z" fill="#4C5B60"/>
<mask id="mask0" mask-type="alpha" maskUnits="userSpaceOnUse" x="4" y="14" width="294" height="396">
<path d="M280 410H4V14H280C289.9 14 298 21.8 298 31.7V391.7C298 401.7 289.9 410 280 410Z" fill="white"/>
</mask>
<g mask="url(#mask0)">
<path opacity="0.11" d="M-21.6004 712.601C-22.0004 712.601 -22.4004 712.501 -22.7004 712.201C-23.3004 711.601 -23.3004 710.701 -22.7004 710.101L321.7 365.801C322.3 365.201 323.2 365.201 323.8 365.801C324.4 366.401 324.4 367.301 323.8 367.901L-20.5004 712.201C-20.8004 712.501 -21.2004 712.601 -21.6004 712.601Z" fill="#102D3B"/>
<path opacity="0.11" d="M-21.6004 698.601C-22.0004 698.601 -22.4004 698.501 -22.7004 698.201C-23.3004 697.601 -23.3004 696.701 -22.7004 696.101L321.7 351.801C322.3 351.201 323.2 351.201 323.8 351.801C324.4 352.401 324.4 353.301 323.8 353.901L-20.5004 698.201C-20.8004 698.501 -21.2004 698.601 -21.6004 698.601Z" fill="#102D3B"/>
<path opacity="0.11" d="M-21.6004 684.601C-22.0004 684.601 -22.4004 684.501 -22.7004 684.201C-23.3004 683.601 -23.3004 682.701 -22.7004 682.101L321.7 337.801C322.3 337.201 323.2 337.201 323.8 337.801C324.4 338.401 324.4 339.301 323.8 339.901L-20.5004 684.201C-20.8004 684.501 -21.2004 684.601 -21.6004 684.601Z" fill="#102D3B"/>
<path opacity="0.11" d="M-21.6004 670.601C-22.0004 670.601 -22.4004 670.501 -22.7004 670.201C-23.3004 669.601 -23.3004 668.701 -22.7004 668.101L321.7 323.801C322.3 323.201 323.2 323.201 323.8 323.801C324.4 324.401 324.4 325.301 323.8 325.901L-20.5004 670.201C-20.8004 670.501 -21.2004 670.601 -21.6004 670.601Z" fill="#102D3B"/>
<path opacity="0.11" d="M-21.6004 656.601C-22.0004 656.601 -22.4004 656.501 -22.7004 656.201C-23.3004 655.601 -23.3004 654.701 -22.7004 654.101L321.7 309.801C322.3 309.201 323.2 309.201 323.8 309.801C324.4 310.401 324.4 311.301 323.8 311.901L-20.5004 656.201C-20.8004 656.501 -21.2004 656.601 -21.6004 656.601Z" fill="#102D3B"/>
<path opacity="0.11" d="M-21.6004 642.601C-22.0004 642.601 -22.4004 642.501 -22.7004 642.201C-23.3004 641.601 -23.3004 640.701 -22.7004 640.101L321.7 295.801C322.3 295.201 323.2 295.201 323.8 295.801C324.4 296.401 324.4 297.301 323.8 297.901L-20.5004 642.201C-20.8004 642.501 -21.2004 642.601 -21.6004 642.601Z" fill="#102D3B"/>
<path opacity="0.11" d="M-21.6004 628.601C-22.0004 628.601 -22.4004 628.501 -22.7004 628.201C-23.3004 627.601 -23.3004 626.701 -22.7004 626.101L321.7 281.801C322.3 281.201 323.2 281.201 323.8 281.801C324.4 282.401 324.4 283.301 323.8 283.901L-20.5004 628.201C-20.8004 628.501 -21.2004 628.601 -21.6004 628.601Z" fill="#102D3B"/>
<path opacity="0.11" d="M-21.6004 614.601C-22.0004 614.601 -22.4004 614.501 -22.7004 614.201C-23.3004 613.601 -23.3004 612.701 -22.7004 612.101L321.7 267.801C322.3 267.201 323.2 267.201 323.8 267.801C324.4 268.401 324.4 269.301 323.8 269.901L-20.5004 614.201C-20.8004 614.501 -21.2004 614.601 -21.6004 614.601Z" fill="#102D3B"/>
<path opacity="0.11" d="M-21.6004 600.601C-22.0004 600.601 -22.4004 600.501 -22.7004 600.201C-23.3004 599.601 -23.3004 598.701 -22.7004 598.101L321.7 253.801C322.3 253.201 323.2 253.201 323.8 253.801C324.4 254.401 324.4 255.301 323.8 255.901L-20.5004 600.201C-20.8004 600.501 -21.2004 600.601 -21.6004 600.601Z" fill="#102D3B"/>
<path opacity="0.11" d="M-21.6004 586.601C-22.0004 586.601 -22.4004 586.501 -22.7004 586.201C-23.3004 585.601 -23.3004 584.701 -22.7004 584.101L321.7 239.801C322.3 239.201 323.2 239.201 323.8 239.801C324.4 240.401 324.4 241.301 323.8 241.901L-20.5004 586.201C-20.8004 586.501 -21.2004 586.601 -21.6004 586.601Z" fill="#102D3B"/>
<path opacity="0.11" d="M-21.6004 572.601C-22.0004 572.601 -22.4004 572.501 -22.7004 572.201C-23.3004 571.601 -23.3004 570.701 -22.7004 570.101L321.7 225.801C322.3 225.201 323.2 225.201 323.8 225.801C324.4 226.401 324.4 227.301 323.8 227.901L-20.5004 572.201C-20.8004 572.501 -21.2004 572.601 -21.6004 572.601Z" fill="#102D3B"/>
<path opacity="0.11" d="M-21.6004 558.601C-22.0004 558.601 -22.4004 558.501 -22.7004 558.201C-23.3004 557.601 -23.3004 556.701 -22.7004 556.101L321.7 211.801C322.3 211.201 323.2 211.201 323.8 211.801C324.4 212.401 324.4 213.301 323.8 213.901L-20.5004 558.201C-20.8004 558.501 -21.2004 558.601 -21.6004 558.601Z" fill="#102D3B"/>
<path opacity="0.11" d="M-21.6004 544.601C-22.0004 544.601 -22.4004 544.501 -22.7004 544.201C-23.3004 543.601 -23.3004 542.701 -22.7004 542.101L321.7 197.801C322.3 197.201 323.2 197.201 323.8 197.801C324.4 198.401 324.4 199.301 323.8 199.901L-20.5004 544.201C-20.8004 544.501 -21.2004 544.601 -21.6004 544.601Z" fill="#102D3B"/>
<path opacity="0.11" d="M-21.6004 530.601C-22.0004 530.601 -22.4004 530.501 -22.7004 530.201C-23.3004 529.601 -23.3004 528.701 -22.7004 528.101L321.7 183.801C322.3 183.201 323.2 183.201 323.8 183.801C324.4 184.401 324.4 185.301 323.8 185.901L-20.5004 530.201C-20.8004 530.501 -21.2004 530.601 -21.6004 530.601Z" fill="#102D3B"/>
<path opacity="0.11" d="M-21.6004 516.601C-22.0004 516.601 -22.4004 516.501 -22.7004 516.201C-23.3004 515.601 -23.3004 514.701 -22.7004 514.101L321.7 169.801C322.3 169.201 323.2 169.201 323.8 169.801C324.4 170.401 324.4 171.301 323.8 171.901L-20.5004 516.201C-20.8004 516.501 -21.2004 516.601 -21.6004 516.601Z" fill="#102D3B"/>
<path opacity="0.11" d="M-21.6004 502.601C-22.0004 502.601 -22.4004 502.501 -22.7004 502.201C-23.3004 501.601 -23.3004 500.701 -22.7004 500.101L321.7 155.801C322.3 155.201 323.2 155.201 323.8 155.801C324.4 156.401 324.4 157.301 323.8 157.901L-20.5004 502.201C-20.8004 502.501 -21.2004 502.601 -21.6004 502.601Z" fill="#102D3B"/>
<path opacity="0.11" d="M-21.6004 488.601C-22.0004 488.601 -22.4004 488.501 -22.7004 488.201C-23.3004 487.601 -23.3004 486.701 -22.7004 486.101L321.7 141.801C322.3 141.201 323.2 141.201 323.8 141.801C324.4 142.401 324.4 143.301 323.8 143.901L-20.5004 488.201C-20.8004 488.501 -21.2004 488.601 -21.6004 488.601Z" fill="#102D3B"/>
<path opacity="0.11" d="M-21.6004 474.601C-22.0004 474.601 -22.4004 474.501 -22.7004 474.201C-23.3004 473.601 -23.3004 472.701 -22.7004 472.101L321.7 127.801C322.3 127.201 323.2 127.201 323.8 127.801C324.4 128.401 324.4 129.301 323.8 129.901L-20.5004 474.201C-20.8004 474.501 -21.2004 474.601 -21.6004 474.601Z" fill="#102D3B"/>
<path opacity="0.11" d="M-21.6004 460.601C-22.0004 460.601 -22.4004 460.501 -22.7004 460.201C-23.3004 459.601 -23.3004 458.701 -22.7004 458.101L321.7 113.801C322.3 113.201 323.2 113.201 323.8 113.801C324.4 114.401 324.4 115.301 323.8 115.901L-20.5004 460.201C-20.8004 460.501 -21.2004 460.601 -21.6004 460.601Z" fill="#102D3B"/>
<path opacity="0.11" d="M-21.6004 446.601C-22.0004 446.601 -22.4004 446.501 -22.7004 446.201C-23.3004 445.601 -23.3004 444.701 -22.7004 444.101L321.7 99.8006C322.3 99.2006 323.2 99.2006 323.8 99.8006C324.4 100.401 324.4 101.301 323.8 101.901L-20.5004 446.201C-20.8004 446.501 -21.2004 446.601 -21.6004 446.601Z" fill="#102D3B"/>
<path opacity="0.11" d="M-21.6004 432.601C-22.0004 432.601 -22.4004 432.501 -22.7004 432.201C-23.3004 431.601 -23.3004 430.701 -22.7004 430.101L321.7 85.8006C322.3 85.2006 323.2 85.2006 323.8 85.8006C324.4 86.4006 324.4 87.3006 323.8 87.9006L-20.5004 432.201C-20.8004 432.501 -21.2004 432.601 -21.6004 432.601Z" fill="#102D3B"/>
<path opacity="0.11" d="M-21.6004 418.601C-22.0004 418.601 -22.4004 418.501 -22.7004 418.201C-23.3004 417.601 -23.3004 416.701 -22.7004 416.101L321.7 71.8006C322.3 71.2006 323.2 71.2006 323.8 71.8006C324.4 72.4006 324.4 73.3006 323.8 73.9006L-20.5004 418.201C-20.8004 418.501 -21.2004 418.601 -21.6004 418.601Z" fill="#102D3B"/>
<path opacity="0.11" d="M-21.6004 404.601C-22.0004 404.601 -22.4004 404.501 -22.7004 404.201C-23.3004 403.601 -23.3004 402.701 -22.7004 402.101L321.7 57.8006C322.3 57.2006 323.2 57.2006 323.8 57.8006C324.4 58.4006 324.4 59.3006 323.8 59.9006L-20.5004 404.201C-20.8004 404.501 -21.2004 404.601 -21.6004 404.601Z" fill="#102D3B"/>
<path opacity="0.11" d="M-21.6004 390.601C-22.0004 390.601 -22.4004 390.501 -22.7004 390.201C-23.3004 389.601 -23.3004 388.701 -22.7004 388.101L321.7 43.8006C322.3 43.2006 323.2 43.2006 323.8 43.8006C324.4 44.4006 324.4 45.3006 323.8 45.9006L-20.5004 390.201C-20.8004 390.501 -21.2004 390.601 -21.6004 390.601Z" fill="#102D3B"/>
<path opacity="0.11" d="M-21.6004 376.601C-22.0004 376.601 -22.4004 376.501 -22.7004 376.201C-23.3004 375.601 -23.3004 374.701 -22.7004 374.101L321.7 29.8006C322.3 29.2006 323.2 29.2006 323.8 29.8006C324.4 30.4006 324.4 31.3006 323.8 31.9006L-20.5004 376.201C-20.8004 376.501 -21.2004 376.601 -21.6004 376.601Z" fill="#102D3B"/>
<path opacity="0.11" d="M-21.6004 362.601C-22.0004 362.601 -22.4004 362.501 -22.7004 362.201C-23.3004 361.601 -23.3004 360.701 -22.7004 360.101L321.7 15.8006C322.3 15.2006 323.2 15.2006 323.8 15.8006C324.4 16.4006 324.4 17.3006 323.8 17.9006L-20.5004 362.201C-20.8004 362.501 -21.2004 362.601 -21.6004 362.601Z" fill="#102D3B"/>
<path opacity="0.11" d="M-21.6004 348.601C-22.0004 348.601 -22.4004 348.501 -22.7004 348.201C-23.3004 347.601 -23.3004 346.701 -22.7004 346.101L321.7 1.80059C322.3 1.20059 323.2 1.20059 323.8 1.80059C324.4 2.40059 324.4 3.30059 323.8 3.90059L-20.5004 348.201C-20.8004 348.501 -21.2004 348.601 -21.6004 348.601Z" fill="#102D3B"/>
<path opacity="0.11" d="M-21.6004 334.601C-22.0004 334.601 -22.4004 334.501 -22.7004 334.201C-23.3004 333.601 -23.3004 332.701 -22.7004 332.101L321.7 -12.1994C322.3 -12.7994 323.2 -12.7994 323.8 -12.1994C324.4 -11.5994 324.4 -10.6994 323.8 -10.0994L-20.5004 334.201C-20.8004 334.501 -21.2004 334.601 -21.6004 334.601Z" fill="#102D3B"/>
<path opacity="0.11" d="M-21.6004 320.601C-22.0004 320.601 -22.4004 320.501 -22.7004 320.201C-23.3004 319.601 -23.3004 318.701 -22.7004 318.101L321.7 -26.1994C322.3 -26.7994 323.2 -26.7994 323.8 -26.1994C324.4 -25.5994 324.4 -24.6994 323.8 -24.0994L-20.5004 320.201C-20.8004 320.501 -21.2004 320.601 -21.6004 320.601Z" fill="#102D3B"/>
<path opacity="0.11" d="M-21.6004 306.601C-22.0004 306.601 -22.4004 306.501 -22.7004 306.201C-23.3004 305.601 -23.3004 304.701 -22.7004 304.101L321.7 -40.1994C322.3 -40.7994 323.2 -40.7994 323.8 -40.1994C324.4 -39.5994 324.4 -38.6994 323.8 -38.0994L-20.5004 306.201C-20.8004 306.501 -21.2004 306.601 -21.6004 306.601Z" fill="#102D3B"/>
<path opacity="0.11" d="M-21.6004 292.601C-22.0004 292.601 -22.4004 292.501 -22.7004 292.201C-23.3004 291.601 -23.3004 290.701 -22.7004 290.101L321.7 -54.1994C322.3 -54.7994 323.2 -54.7994 323.8 -54.1994C324.4 -53.5994 324.4 -52.6994 323.8 -52.0994L-20.5004 292.201C-20.8004 292.501 -21.2004 292.601 -21.6004 292.601Z" fill="#102D3B"/>
<path opacity="0.11" d="M-21.6004 278.601C-22.0004 278.601 -22.4004 278.501 -22.7004 278.201C-23.3004 277.601 -23.3004 276.701 -22.7004 276.101L321.7 -68.1994C322.3 -68.7994 323.2 -68.7994 323.8 -68.1994C324.4 -67.5994 324.4 -66.6994 323.8 -66.0994L-20.5004 278.201C-20.8004 278.501 -21.2004 278.601 -21.6004 278.601Z" fill="#102D3B"/>
<path opacity="0.11" d="M-21.6004 264.601C-22.0004 264.601 -22.4004 264.501 -22.7004 264.201C-23.3004 263.601 -23.3004 262.701 -22.7004 262.101L321.7 -82.1994C322.3 -82.7994 323.2 -82.7994 323.8 -82.1994C324.4 -81.5994 324.4 -80.6994 323.8 -80.0994L-20.5004 264.201C-20.8004 264.501 -21.2004 264.601 -21.6004 264.601Z" fill="#102D3B"/>
<path opacity="0.11" d="M-21.6004 250.601C-22.0004 250.601 -22.4004 250.501 -22.7004 250.201C-23.3004 249.601 -23.3004 248.701 -22.7004 248.101L321.7 -96.1994C322.3 -96.7994 323.2 -96.7994 323.8 -96.1994C324.4 -95.5994 324.4 -94.6994 323.8 -94.0994L-20.5004 250.201C-20.8004 250.501 -21.2004 250.601 -21.6004 250.601Z" fill="#102D3B"/>
<path opacity="0.11" d="M-21.6004 236.601C-22.0004 236.601 -22.4004 236.501 -22.7004 236.201C-23.3004 235.601 -23.3004 234.701 -22.7004 234.101L321.7 -110.199C322.3 -110.799 323.2 -110.799 323.8 -110.199C324.4 -109.599 324.4 -108.699 323.8 -108.099L-20.5004 236.201C-20.8004 236.501 -21.2004 236.601 -21.6004 236.601Z" fill="#102D3B"/>
<path opacity="0.11" d="M-21.6004 222.601C-22.0004 222.601 -22.4004 222.501 -22.7004 222.201C-23.3004 221.601 -23.3004 220.701 -22.7004 220.101L321.7 -124.199C322.3 -124.799 323.2 -124.799 323.8 -124.199C324.4 -123.599 324.4 -122.699 323.8 -122.099L-20.5004 222.201C-20.8004 222.501 -21.2004 222.601 -21.6004 222.601Z" fill="#102D3B"/>
<path opacity="0.11" d="M-21.6004 208.601C-22.0004 208.601 -22.4004 208.501 -22.7004 208.201C-23.3004 207.601 -23.3004 206.701 -22.7004 206.101L321.7 -138.199C322.3 -138.799 323.2 -138.799 323.8 -138.199C324.4 -137.599 324.4 -136.699 323.8 -136.099L-20.5004 208.201C-20.8004 208.501 -21.2004 208.601 -21.6004 208.601Z" fill="#102D3B"/>
<path opacity="0.11" d="M-21.6004 194.6C-22.0004 194.6 -22.4004 194.5 -22.7004 194.2C-23.3004 193.6 -23.3004 192.7 -22.7004 192.1L321.7 -152.3C322.3 -152.9 323.2 -152.9 323.8 -152.3C324.4 -151.7 324.4 -150.8 323.8 -150.2L-20.5004 194.2C-20.8004 194.5 -21.2004 194.6 -21.6004 194.6Z" fill="#102D3B"/>
<path opacity="0.11" d="M-21.6004 180.6C-22.0004 180.6 -22.4004 180.5 -22.7004 180.2C-23.3004 179.6 -23.3004 178.7 -22.7004 178.1L321.7 -166.3C322.3 -166.9 323.2 -166.9 323.8 -166.3C324.4 -165.7 324.4 -164.8 323.8 -164.2L-20.5004 180.2C-20.8004 180.5 -21.2004 180.6 -21.6004 180.6Z" fill="#102D3B"/>
<path opacity="0.11" d="M-21.6004 166.6C-22.0004 166.6 -22.4004 166.5 -22.7004 166.2C-23.3004 165.6 -23.3004 164.7 -22.7004 164.1L321.7 -180.4C322.3 -181 323.2 -181 323.8 -180.4C324.4 -179.8 324.4 -178.9 323.8 -178.3L-20.5004 166.2C-20.8004 166.5 -21.2004 166.6 -21.6004 166.6Z" fill="#102D3B"/>
<path opacity="0.11" d="M-21.6004 152.6C-22.0004 152.6 -22.4004 152.5 -22.7004 152.2C-23.3004 151.6 -23.3004 150.7 -22.7004 150.1L321.7 -194.4C322.3 -195 323.2 -195 323.8 -194.4C324.4 -193.8 324.4 -192.9 323.8 -192.3L-20.5004 152.2C-20.8004 152.5 -21.2004 152.6 -21.6004 152.6Z" fill="#102D3B"/>
<path opacity="0.11" d="M-21.6004 138.6C-22.0004 138.6 -22.4004 138.5 -22.7004 138.2C-23.3004 137.6 -23.3004 136.7 -22.7004 136.1L321.7 -208.4C322.3 -209 323.2 -209 323.8 -208.4C324.4 -207.8 324.4 -206.9 323.8 -206.3L-20.5004 138.2C-20.8004 138.5 -21.2004 138.6 -21.6004 138.6Z" fill="#102D3B"/>
<path opacity="0.11" d="M-21.6004 124.6C-22.0004 124.6 -22.4004 124.5 -22.7004 124.2C-23.3004 123.6 -23.3004 122.7 -22.7004 122.1L321.7 -222.4C322.3 -223 323.2 -223 323.8 -222.4C324.4 -221.8 324.4 -220.9 323.8 -220.3L-20.5004 124.2C-20.8004 124.5 -21.2004 124.6 -21.6004 124.6Z" fill="#102D3B"/>
<path opacity="0.11" d="M-21.6004 110.6C-22.0004 110.6 -22.4004 110.5 -22.7004 110.2C-23.3004 109.6 -23.3004 108.7 -22.7004 108.1L321.7 -236.4C322.3 -237 323.2 -237 323.8 -236.4C324.4 -235.8 324.4 -234.9 323.8 -234.3L-20.5004 110.2C-20.8004 110.5 -21.2004 110.6 -21.6004 110.6Z" fill="#102D3B"/>
<path opacity="0.11" d="M-21.6004 96.6004C-22.0004 96.6004 -22.4004 96.5004 -22.7004 96.2004C-23.3004 95.6004 -23.3004 94.7004 -22.7004 94.1004L321.7 -250.4C322.3 -251 323.2 -251 323.8 -250.4C324.4 -249.8 324.4 -248.9 323.8 -248.3L-20.5004 96.2004C-20.8004 96.5004 -21.2004 96.6004 -21.6004 96.6004Z" fill="#102D3B"/>
<path opacity="0.11" d="M-21.6004 82.6004C-22.0004 82.6004 -22.4004 82.5004 -22.7004 82.2004C-23.3004 81.6004 -23.3004 80.7004 -22.7004 80.1004L321.7 -264.4C322.3 -265 323.2 -265 323.8 -264.4C324.4 -263.8 324.4 -262.9 323.8 -262.3L-20.5004 82.2004C-20.8004 82.5004 -21.2004 82.6004 -21.6004 82.6004Z" fill="#102D3B"/>
<path opacity="0.11" d="M-21.6004 68.6004C-22.0004 68.6004 -22.4004 68.5004 -22.7004 68.2004C-23.3004 67.6004 -23.3004 66.7004 -22.7004 66.1004L290.1 -246.9C290.7 -247.5 291.6 -247.5 292.2 -246.9C292.8 -246.3 292.8 -245.4 292.2 -244.8L-20.5004 68.2004C-20.8004 68.5004 -21.2004 68.6004 -21.6004 68.6004Z" fill="#102D3B"/>
<path opacity="0.11" d="M-21.6004 54.6004C-22.0004 54.6004 -22.4004 54.5004 -22.7004 54.2004C-23.3004 53.6004 -23.3004 52.7004 -22.7004 52.1004L270.7 -241.4C271.3 -242 272.2 -242 272.8 -241.4C273.4 -240.8 273.4 -239.9 272.8 -239.3L-20.5004 54.2004C-20.8004 54.5004 -21.2004 54.6004 -21.6004 54.6004Z" fill="#102D3B"/>
</g>
<path d="M257 12H233V408H257V12Z" fill="#3E4B4F"/>
<path opacity="0.3" d="M21 12H4V408H21V12Z" fill="#CCDDE5"/>
<path d="M280 408H4V12H280C289.9 12 298 19.8 298 29.7V389.7C298 399.7 289.9 408 280 408Z" stroke="#102D3B" stroke-width="8" stroke-miterlimit="10" stroke-linecap="round" stroke-linejoin="round"/>
<path d="M38 12H4V408H38V12Z" stroke="#102D3B" stroke-width="8" stroke-miterlimit="10" stroke-linecap="round" stroke-linejoin="round"/>
<path d="M298 126H4V238H298V126Z" fill="#FF9852"/>
<path d="M135.2 160.4C135.2 162.5 134.8 164.2 134 165.5C133.2 166.8 132.3 167.8 131.3 168.6C129.8 169.8 127.8 170.3 125.1 170.3H114V149.7H122.6C123.9 149.7 125 149.8 125.9 149.9C126.8 150 127.6 150.2 128.4 150.5C129.2 150.8 129.8 151 130.3 151.3C130.8 151.6 131.3 151.9 131.7 152.3C132.4 152.9 133 153.6 133.5 154.3C134 155 134.5 156 134.8 157C135.1 158.1 135.2 159.2 135.2 160.4ZM128.9 160.2C128.9 158.5 128.6 157.2 127.9 156.3C127.3 155.4 126.5 154.7 125.6 154.4C124.7 154.1 123.8 153.9 122.9 153.9H120.3V166.1H122.9C124.5 166.1 125.9 165.7 127.1 164.9C128.3 164.1 128.9 162.6 128.9 160.2Z" fill="#D85639"/>
<path d="M161.1 160C161.1 161.9 160.7 163.7 159.8 165.3C158.9 166.9 157.6 168.2 155.8 169.1C154 170 151.9 170.5 149.4 170.5C146.9 170.5 144.7 170 142.9 169C141.1 168 139.8 166.7 139 165.1C138.1 163.5 137.7 161.8 137.7 159.9C137.7 158 138.1 156.3 139 154.7C139.9 153.1 141.2 151.8 142.9 150.8C144.7 149.8 146.8 149.3 149.4 149.3C151.3 149.3 153 149.6 154.5 150.1C156 150.6 157.2 151.4 158.2 152.4C159.2 153.4 159.9 154.5 160.4 155.8C160.9 157.1 161.1 158.6 161.1 160ZM154.8 160C154.8 159.2 154.7 158.5 154.5 157.9C154.3 157.3 153.9 156.7 153.5 156.2C153 155.7 152.5 155.4 151.8 155.1C151.1 154.8 150.4 154.7 149.5 154.7C147.8 154.7 146.5 155.2 145.6 156.2C144.7 157.2 144.2 158.4 144.2 160C144.2 161.6 144.7 162.8 145.6 163.8C146.6 164.8 147.9 165.3 149.5 165.3C150.6 165.3 151.6 165.1 152.4 164.6C153.2 164.1 153.8 163.5 154.2 162.7C154.5 162 154.8 161.1 154.8 160Z" fill="#D85639"/>
<path d="M182.9 154.8H175.4V170.4H169.2V154.8H161.7V149.8H183L182.9 154.8Z" fill="#D85639"/>
<path d="M133.5 193.4C133.1 193.6 132.7 193.7 132.4 193.8C132.1 193.9 131.8 194 131.5 194.1C131.2 194.2 130.8 194.3 130.2 194.4C129.3 194.6 128.3 194.8 127.4 194.9C126.5 195 125.5 195.1 124.4 195.1C122.3 195.1 120.4 194.7 118.6 194C116.8 193.2 115.4 192.1 114.3 190.5C113.2 188.9 112.7 186.9 112.7 184.6C112.7 183.1 113 181.6 113.5 180.2C114 178.8 114.9 177.6 116 176.7C116.9 176 117.9 175.4 118.8 175C119.8 174.6 120.7 174.4 121.6 174.2C122.5 174.1 123.5 174 124.6 174C126.4 174 127.9 174.1 129.1 174.4C130.3 174.7 131.6 175 133 175.5V180.4C132.1 179.9 131.1 179.4 130 179C129 178.6 127.7 178.5 126.1 178.5C124.3 178.5 122.9 178.8 121.8 179.5C120.7 180.2 120 181 119.6 181.9C119.2 182.8 119 183.8 119 184.6C119 185.6 119.2 186.6 119.7 187.5C120.2 188.4 120.9 189.1 121.9 189.6C122.9 190.1 124.1 190.4 125.4 190.4C126.2 190.4 127 190.3 127.9 190.1V187.7H125.1V183.6H133.3V193.4H133.5Z" fill="#D85639"/>
<path d="M158.3 194.9H151.6L150 191.2C149.4 189.9 148.9 188.9 148.4 188.3C147.9 187.7 147.5 187.3 147 187.1C146.5 186.9 146 186.8 145.3 186.8H144.6V194.8H138.4V174.2H149C150.7 174.2 152.1 174.5 153.2 175.2C154.3 175.9 155.1 176.7 155.6 177.7C156.1 178.7 156.3 179.6 156.3 180.5C156.3 181.5 156.1 182.4 155.7 183.1C155.3 183.8 154.9 184.3 154.4 184.7C154 185 153.5 185.3 152.9 185.6C153.6 186 154.1 186.4 154.5 187C154.9 187.6 155.5 188.6 156.3 190.2L158.3 194.9ZM149.9 180.8C149.9 179.8 149.6 179.2 149 178.8C148.4 178.4 147.4 178.2 146 178.2H144.7V183.2H146C147.5 183.2 148.6 183 149.1 182.7C149.6 182.4 149.9 181.7 149.9 180.8Z" fill="#D85639"/>
<path d="M167.3 194.9H161.1V174.3H167.3V194.9Z" fill="#D85639"/>
<path d="M193.7 184.9C193.7 187 193.3 188.7 192.5 190C191.7 191.3 190.8 192.3 189.8 193.1C188.3 194.3 186.3 194.8 183.6 194.8H172.5V174.2H181.1C182.4 174.2 183.5 174.3 184.4 174.4C185.3 174.5 186.1 174.7 186.9 175C187.7 175.3 188.3 175.5 188.8 175.8C189.3 176.1 189.8 176.4 190.2 176.8C190.9 177.4 191.5 178.1 192 178.8C192.5 179.5 193 180.5 193.3 181.5C193.5 182.6 193.7 183.7 193.7 184.9ZM187.4 184.7C187.4 183 187.1 181.7 186.4 180.8C185.8 179.9 185 179.2 184.1 178.9C183.2 178.6 182.3 178.4 181.4 178.4H178.8V190.6H181.4C183 190.6 184.4 190.2 185.6 189.4C186.8 188.6 187.4 187.1 187.4 184.7Z" fill="#D85639"/>
<path d="M132.9 213.5C132.9 215.3 132.3 216.7 131.1 217.7C129.9 218.8 128.2 219.3 126 219.3H114.1V198.7H124C125.3 198.7 126.4 198.8 127.4 199.1C128.4 199.3 129.1 199.7 129.7 200.1C130.3 200.5 130.7 201 131 201.6C131.3 202.2 131.4 202.8 131.4 203.5C131.4 204.3 131.3 204.9 131 205.6C130.7 206.3 130.3 206.8 129.9 207.2C129.5 207.6 129 207.9 128.6 208.1C130 208.7 131.1 209.4 131.8 210.2C132.5 211 132.9 212.2 132.9 213.5ZM125.6 204.7C125.6 203.7 125.3 203.1 124.6 202.7C123.9 202.3 122.9 202.2 121.5 202.2H120.2V207.1H121.5C122.9 207.1 123.9 206.9 124.6 206.6C125.3 206.4 125.6 205.7 125.6 204.7ZM126.6 213.3C126.6 211.5 125.3 210.7 122.8 210.7H120.3V216H122.8C125.4 215.9 126.6 215 126.6 213.3Z" fill="#D85639"/>
<path d="M158.9 209.1C158.9 211 158.5 212.8 157.6 214.4C156.7 216 155.4 217.3 153.6 218.2C151.8 219.1 149.7 219.6 147.2 219.6C144.7 219.6 142.5 219.1 140.7 218.1C138.9 217.1 137.6 215.8 136.8 214.2C135.9 212.6 135.5 210.9 135.5 209C135.5 207.1 135.9 205.4 136.8 203.8C137.7 202.2 139 200.9 140.7 199.9C142.5 198.9 144.6 198.4 147.2 198.4C149.1 198.4 150.8 198.7 152.3 199.2C153.8 199.7 155 200.5 156 201.5C157 202.5 157.7 203.6 158.2 204.9C158.7 206.2 158.9 207.6 158.9 209.1ZM152.5 209.1C152.5 208.3 152.4 207.6 152.2 207C152 206.4 151.6 205.8 151.2 205.3C150.7 204.8 150.2 204.5 149.5 204.2C148.8 203.9 148.1 203.8 147.2 203.8C145.5 203.8 144.2 204.3 143.3 205.3C142.4 206.3 141.9 207.5 141.9 209.1C141.9 210.7 142.4 211.9 143.3 212.9C144.3 213.9 145.6 214.4 147.2 214.4C148.3 214.4 149.3 214.2 150.1 213.7C150.9 213.2 151.5 212.6 151.9 211.8C152.3 211 152.5 210.1 152.5 209.1Z" fill="#D85639"/>
<path d="M184.7 209.1C184.7 211 184.3 212.8 183.4 214.4C182.5 216 181.2 217.3 179.4 218.2C177.6 219.1 175.5 219.6 173 219.6C170.5 219.6 168.3 219.1 166.5 218.1C164.7 217.1 163.4 215.8 162.6 214.2C161.7 212.6 161.3 210.9 161.3 209C161.3 207.1 161.7 205.4 162.6 203.8C163.5 202.2 164.8 200.9 166.5 199.9C168.3 198.9 170.4 198.4 173 198.4C174.9 198.4 176.6 198.7 178.1 199.2C179.6 199.7 180.8 200.5 181.8 201.5C182.8 202.5 183.5 203.6 184 204.9C184.5 206.2 184.7 207.6 184.7 209.1ZM178.4 209.1C178.4 208.3 178.3 207.6 178.1 207C177.9 206.4 177.5 205.8 177.1 205.3C176.6 204.8 176.1 204.5 175.4 204.2C174.7 203.9 174 203.8 173.1 203.8C171.4 203.8 170.1 204.3 169.2 205.3C168.3 206.3 167.8 207.5 167.8 209.1C167.8 210.7 168.3 211.9 169.2 212.9C170.2 213.9 171.5 214.4 173.1 214.4C174.2 214.4 175.2 214.2 176 213.7C176.8 213.2 177.4 212.6 177.8 211.8C178.2 211 178.4 210.1 178.4 209.1Z" fill="#D85639"/>
<path d="M210.2 219.4H202.6L194.7 209.8V219.4H188.5V198.8H194.7V208L202.2 198.8H208.9L201.2 208.4L210.2 219.4Z" fill="#D85639"/>
<path opacity="0.6" d="M38 126V238" stroke="#D85639" stroke-width="8" stroke-miterlimit="10"/>
<path d="M21 126H4V238H21V126Z" fill="#FDBA5D"/>
<path opacity="0.61" d="M257 126H240V238H257V126Z" fill="#D85639"/>
<path d="M298 126H4V238H298V126Z" stroke="#102D3B" stroke-width="8" stroke-miterlimit="10" stroke-linecap="round" stroke-linejoin="round"/>
<path d="M240.2 416H227.9C224.7 416 222.1 413.4 222.1 410.2V9.79999C222.1 6.59999 224.7 4 227.9 4H240.2C243.4 4 246 6.59999 246 9.79999V410.1C246 413.4 243.4 416 240.2 416Z" fill="#B7C8CE"/>
<path d="M240.2 416H227.9C224.7 416 222.1 413.4 222.1 410.2V9.79999C222.1 6.59999 224.7 4 227.9 4H240.2C243.4 4 246 6.59999 246 9.79999V410.1C246 413.4 243.4 416 240.2 416Z" stroke="#102D3B" stroke-width="8" stroke-miterlimit="10" stroke-linecap="round" stroke-linejoin="round"/>
<path d="M65 453.7L35 437V408H65V453.7Z" fill="#EA3939"/>
<path opacity="0.62" d="M65 408H35V419.3H65V408Z" fill="#EA3939"/>
<path d="M65 453.7L35 437V408H65V453.7Z" stroke="#102D3B" stroke-width="8" stroke-miterlimit="10" stroke-linecap="round" stroke-linejoin="round"/>
</svg>
