<svg height="512" viewBox="0 0 24 24" width="512" xmlns="http://www.w3.org/2000/svg"><path d="M14.25 20.25H2.75a2 2 0 01-2-2V4.75a2 2 0 012-2h11.5a2 2 0 012 2v13.5a2 2 0 01-2 2z" fill="#eceff1"/><path d="M22.96 13.88l-1.24-1.24c-.39-.39-.85-.21-1.24.18l-7.42 7.42-.53 3.01 3-.53 7.43-7.42c.39-.4.39-1.03 0-1.42z" fill="#ffc107"/><path d="M12.527 24a.748.748 0 01-.738-.88l.53-3.005a.752.752 0 01.208-.4l7.425-7.425c.316-.316.651-.514.996-.585.476-.1.939.045 1.302.408l1.237 1.237a1.753 1.753 0 010 2.475l-7.424 7.425a.753.753 0 01-.4.208l-3.005.53a.726.726 0 01-.131.012zm3.006-1.28h.01zm-1.778-2.112l-.303 1.717 1.717-.303 7.257-7.258a.252.252 0 000-.354l-1.228-1.228c-.01.019-.085.066-.186.167zM10.01 21H2.75A2.752 2.752 0 010 18.25V4.75A2.752 2.752 0 012.75 2h11.5A2.752 2.752 0 0117 4.75v8.06a.75.75 0 01-1.5 0V4.75c0-.689-.561-1.25-1.25-1.25H2.75c-.689 0-1.25.561-1.25 1.25v13.5c0 .689.561 1.25 1.25 1.25h7.26a.75.75 0 010 1.5z"/><path d="M3.75 5A.75.75 0 013 4.25V.75a.75.75 0 011.5 0v3.5a.75.75 0 01-.75.75zM8.5 5a.75.75 0 01-.75-.75V.75a.75.75 0 011.5 0v3.5A.75.75 0 018.5 5zM13.25 5a.75.75 0 01-.75-.75V.75a.75.75 0 011.5 0v3.5a.75.75 0 01-.75.75zM11.25 13.5h-7.5a.75.75 0 010-1.5h7.5a.75.75 0 010 1.5zM8.25 9.5h-4.5a.75.75 0 010-1.5h4.5a.75.75 0 010 1.5z"/></svg>